<svg width="82" height="16" viewBox="0 0 82 16" fill="none" xmlns="http://www.w3.org/2000/svg">
<path d="M8 0L9.79611 5.52786H15.6085L10.9062 8.94427L12.7023 14.4721L8 11.0557L3.29772 14.4721L5.09383 8.94427L0.391548 5.52786H6.20389L8 0Z" fill="#FFAE00"/>
<path d="M24.5 0L26.4084 5.52786H32.584L27.5878 8.94427L29.4962 14.4721L24.5 11.0557L19.5038 14.4721L21.4122 8.94427L16.416 5.52786H22.5916L24.5 0Z" fill="#FFAE00"/>
<path d="M41 0L42.7961 5.52786H48.6085L43.9062 8.94427L45.7023 14.4721L41 11.0557L36.2977 14.4721L38.0938 8.94427L33.3915 5.52786H39.2039L41 0Z" fill="#FFAE00"/>
<path d="M57.5 0L59.4084 5.52786H65.584L60.5878 8.94427L62.4962 14.4721L57.5 11.0557L52.5038 14.4721L54.4122 8.94427L49.416 5.52786H55.5916L57.5 0Z" fill="#FFAE00"/>
<path d="M74 0L75.7961 5.52786H81.6085L76.9062 8.94427L78.7023 14.4721L74 11.0557L69.2977 14.4721L71.0938 8.94427L66.3915 5.52786H72.2039L74 0Z" fill="#FFAE00"/>
</svg>
