<svg width="114" height="114" viewBox="0 0 114 114" fill="none" xmlns="http://www.w3.org/2000/svg">
<circle cx="57" cy="57" r="57" fill="#F91D1D" fill-opacity="0.5"/>
<circle cx="57" cy="57" r="45" fill="#F91D1D"/>
<path fill-rule="evenodd" clip-rule="evenodd" d="M70.4691 67.5085C70.2766 67.7004 70.0443 67.9459 69.7981 68.2056C69.1837 68.8577 68.4162 69.6683 67.9351 69.9971C65.4039 71.7268 62.0177 70.8991 59.6224 69.9011C56.4626 68.5844 53.0225 66.1576 49.9336 63.0682C46.8418 59.9785 44.4154 56.5371 43.0988 53.379C42.102 50.9831 41.2726 47.5959 43.0025 45.0641C43.331 44.5826 44.1435 43.8162 44.7947 43.2006C45.0553 42.9551 45.2988 42.7231 45.4914 42.5312C45.8332 42.191 46.2959 42 46.7782 42C47.2605 42 47.7232 42.191 48.0651 42.5312L52.7223 47.1873C53.0623 47.5292 53.2531 47.9918 53.2531 48.4739C53.2531 48.9561 53.0623 49.4187 52.7223 49.7606L51.4536 51.0268C51.0299 51.4474 50.7533 51.9936 50.6651 52.5841C50.5768 53.1746 50.6816 53.7778 50.9637 54.3039C52.7087 57.5976 55.4027 60.2913 58.6965 62.0358C59.2225 62.3179 59.8256 62.4225 60.4159 62.3341C61.0061 62.2457 61.5521 61.969 61.9724 61.5451L63.2379 60.2789C63.5798 59.9387 64.0425 59.7477 64.5248 59.7477C65.0071 59.7477 65.4697 59.9387 65.8116 60.2789L70.4691 64.9358C70.8091 65.2776 71 65.74 71 66.2221C71 66.7042 70.8091 67.1667 70.4691 67.5085Z" fill="white"/>
</svg>
