<svg width="80" height="80" viewBox="0 0 80 80" fill="none" xmlns="http://www.w3.org/2000/svg">
<g clip-path="url(#clip0_79_87)">
<rect x="40" y="-2.00049" width="59.3972" height="59.3972" rx="8" transform="rotate(45 40 -2.00049)" fill="#E52020"/>
<path fill-rule="evenodd" clip-rule="evenodd" d="M34.7664 26.3875L35.2694 25.5163C35.2854 25.4888 35.3158 25.4752 35.347 25.4818L37.3366 25.9047C37.431 25.9248 37.4829 25.887 37.5432 25.8379C38.052 25.4236 38.6459 25.0807 39.2606 24.8509C39.3222 24.8278 39.3692 24.779 39.3896 24.7164L39.4907 24.4061L39.4914 24.4063L40.0179 22.786C40.0278 22.7558 40.0548 22.7361 40.0866 22.7361H42.7506C42.7825 22.7361 42.8095 22.7557 42.8193 22.786L43.4467 24.717C43.4766 24.8087 43.535 24.8349 43.6078 24.8626C44.223 25.0969 44.8126 25.4414 45.3207 25.8597C45.3711 25.9012 45.437 25.917 45.5008 25.9035L45.8186 25.8364L45.8187 25.837L47.4903 25.4818C47.5214 25.4751 47.5519 25.4887 47.5678 25.5162L48.234 26.67L48.9 27.8216C48.9159 27.8492 48.9125 27.8824 48.8911 27.9061L47.5303 29.4174C47.471 29.4833 47.4708 29.5457 47.483 29.622C47.5872 30.2742 47.5852 30.9611 47.4784 31.6129C47.4678 31.6774 47.4872 31.7418 47.5308 31.7902L47.7467 32.0305L47.7464 32.0307L48.891 33.3021C48.9123 33.3258 48.9158 33.359 48.8999 33.3865L48.0702 34.824L48.0693 34.8234L47.5678 35.6918C47.5519 35.7194 47.5214 35.733 47.4903 35.7263L45.5013 35.3035C45.4069 35.2834 45.355 35.3212 45.2947 35.3703C44.9408 35.6585 44.5494 35.9094 44.1398 36.1128C44.1216 36.1218 44.1026 36.123 44.0835 36.1162C44.0644 36.1094 44.0504 36.0966 44.042 36.0781C43.781 35.5066 43.4688 34.9526 43.1056 34.4233C43.0932 34.4052 43.0897 34.3847 43.0954 34.3636C43.1012 34.3424 43.1146 34.3266 43.1345 34.3172C45.736 33.0919 46.3109 29.7105 44.3116 27.7112C42.7138 26.1134 40.1238 26.1133 38.5258 27.7112C37.8847 28.3523 37.4931 29.1529 37.3658 30.0458C37.3626 30.0675 37.3514 30.085 37.3328 30.0967C37.3142 30.1084 37.2936 30.1111 37.2727 30.1046C36.6646 29.9143 36.0433 29.7778 35.4162 29.6947C35.3774 29.6896 35.3497 29.6543 35.3539 29.6154C35.3727 29.4418 35.3254 29.4388 35.0904 29.1774L35.0907 29.1771L33.9462 27.9061C33.925 27.8824 33.9214 27.8492 33.9374 27.8217L34.7656 26.387L34.7664 26.3875ZM29.9067 40.878C29.8341 41.0422 29.6697 41.1569 29.4786 41.1569C28.5282 41.1569 27.5778 41.1569 26.6274 41.1569C26.6066 41.1569 26.5887 41.1647 26.5745 41.18C26.5603 41.1952 26.5538 41.2137 26.5553 41.2344C26.8385 45.1033 30.0632 48.1051 33.9514 48.1051C37.8398 48.1051 41.0644 45.1033 41.3477 41.2345C41.3492 41.2137 41.3427 41.1953 41.3285 41.18C41.3143 41.1647 41.2964 41.157 41.2755 41.157C40.0855 41.157 38.8956 41.157 37.7056 41.157V41.1562C37.5225 41.1561 37.3488 41.0478 37.2742 40.8681L36.0677 37.9724C36.0561 37.9446 36.03 37.9274 35.9998 37.928C35.9697 37.9285 35.9442 37.9464 35.9335 37.9746L33.7218 43.8158C33.575 44.2193 33.029 44.2308 32.8569 43.8574L30.8182 39.4403C30.8064 39.4149 30.783 39.3993 30.755 39.3984C30.727 39.3975 30.7025 39.4115 30.6891 39.4361L29.9092 40.8728C29.9083 40.8746 29.9076 40.8762 29.9067 40.878ZM29.2226 40.1832L30.3826 38.0462C30.5665 37.7082 31.0567 37.729 31.2155 38.074L31.2162 38.0737L33.1666 42.2993C33.179 42.3262 33.205 42.3422 33.2346 42.3412C33.2643 42.3402 33.2891 42.3224 33.2996 42.2946L35.5405 36.3763C35.6903 35.9794 36.2476 35.9747 36.4084 36.3618L36.4087 36.3617L37.9982 40.1766C38.0097 40.204 38.0351 40.221 38.0649 40.221H41.2756C41.2964 40.221 41.3143 40.2131 41.3286 40.1978C41.3427 40.1826 41.3493 40.1642 41.3478 40.1434C41.0646 36.2746 37.8398 33.2728 33.9515 33.2728C30.0632 33.2728 26.8385 36.2746 26.5553 40.1434C26.5538 40.1642 26.5603 40.1826 26.5745 40.1978C26.5886 40.2131 26.6066 40.221 26.6274 40.221H29.1591C29.1863 40.221 29.2096 40.2071 29.2226 40.1832ZM45.2101 49.1477L44.4878 49.87C44.4596 49.8982 44.4138 49.8982 44.3856 49.87L41.6562 47.1406C41.6297 47.1141 41.6279 47.0723 41.6518 47.0435C44.9091 43.106 44.6675 37.2869 41.0106 33.63C37.1122 29.7315 30.7912 29.7314 26.8926 33.63C22.9942 37.5285 22.9941 43.8495 26.8926 47.748C30.5496 51.405 36.3686 51.6465 40.3062 48.3891C40.3349 48.3654 40.3768 48.3671 40.4032 48.3935L43.1326 51.123C43.1608 51.1511 43.1608 51.197 43.1326 51.2251L42.4103 51.9474C42.3846 51.9731 42.3846 52.0193 42.4103 52.045L47.6098 57.2446C47.6356 57.2703 47.6817 57.2702 47.7074 57.2446L50.5073 54.4448C50.533 54.4191 50.533 54.373 50.5073 54.3472L45.3077 49.1477C45.2819 49.122 45.2358 49.1219 45.2101 49.1477ZM40.0222 34.6183C36.6694 31.2655 31.2337 31.2655 27.8809 34.6184C24.5281 37.9712 24.5281 43.4069 27.8809 46.7597C31.2337 50.1125 36.6694 50.1125 40.0222 46.7597C43.375 43.4068 43.375 37.9711 40.0222 34.6183ZM49.9794 37.1189C49.6381 37.2469 49.1863 37.4933 48.9126 37.7296C48.912 37.7302 48.9115 37.7306 48.911 37.7311C48.7732 37.858 48.578 37.9185 48.3808 37.8767L47.3184 37.6509C47.2873 37.6442 47.2567 37.6578 47.2408 37.6854L46.6492 38.71C46.6333 38.7375 46.6368 38.7708 46.6581 38.7944L47.3841 39.6007L47.3835 39.6012C47.6154 39.8591 47.517 40.1007 47.4914 40.4126C47.4693 40.6833 47.477 41.0778 47.5247 41.3397C47.5249 41.3403 47.525 41.3408 47.525 41.3414C47.5626 41.5219 47.5167 41.7173 47.384 41.8647L46.658 42.671C46.6367 42.6947 46.6332 42.7279 46.6491 42.7555L47.2418 43.7799C47.2577 43.8074 47.2882 43.821 47.3193 43.8144L48.3806 43.5888L48.3808 43.59C48.5524 43.5538 48.7384 43.593 48.8844 43.713C49.1656 43.9444 49.6035 44.2148 49.9469 44.3344C49.9476 44.3346 49.9483 44.3349 49.949 44.3351C50.1278 44.3911 50.2778 44.5299 50.3401 44.7216L50.6743 45.7503C50.6842 45.7806 50.7112 45.8002 50.743 45.8002H51.9282C51.96 45.8002 51.987 45.7806 51.9969 45.7503L52.331 44.7219L52.3322 44.7223C52.3867 44.555 52.5142 44.4132 52.6919 44.347C53.0322 44.2198 53.4863 43.9718 53.759 43.7362C53.7597 43.7357 53.7602 43.7353 53.7607 43.7347C53.8986 43.6078 54.0938 43.5473 54.291 43.589L55.353 43.8147C55.3842 43.8214 55.4146 43.8078 55.4306 43.7802L56.0221 42.7556C56.038 42.7281 56.0345 42.6948 56.0132 42.6712L55.287 41.8647L55.2876 41.8642C55.0555 41.6061 55.1542 41.3646 55.1798 41.0526C55.2019 40.7816 55.1942 40.3878 55.1465 40.1258C55.1464 40.1251 55.1462 40.1246 55.1462 40.124C55.1086 39.9436 55.1545 39.7482 55.2873 39.6008L56.0133 38.7945C56.0346 38.7708 56.0381 38.7376 56.0222 38.7101L55.4306 37.6854C55.4146 37.6579 55.3842 37.6443 55.353 37.651L54.2906 37.8768L54.2903 37.8756C54.1187 37.9118 53.9327 37.8726 53.7867 37.7526C53.5055 37.5212 53.0675 37.2508 52.7242 37.1312C52.7235 37.131 52.7228 37.1307 52.7221 37.1305C52.5434 37.0745 52.3934 36.9358 52.331 36.744L51.9968 35.7154C51.987 35.6851 51.9599 35.6654 51.9281 35.6654H50.743C50.7111 35.6654 50.6841 35.685 50.6742 35.7154L50.34 36.744L50.3389 36.7436C50.2846 36.911 50.157 37.0527 49.9794 37.1189ZM51.3357 38.3981C52.625 38.3981 53.6705 39.4435 53.6705 40.7329C53.6705 42.0222 52.625 43.0677 51.3357 43.0677C50.0464 43.0677 49.001 42.0222 49.001 40.7329C49.001 39.4435 50.0464 38.3981 51.3357 38.3981Z" fill="white"/>
</g>
<defs>
<clipPath id="clip0_79_87">
<rect width="80" height="80" fill="white"/>
</clipPath>
</defs>
</svg>
