<svg width="30" height="30" viewBox="0 0 30 30" fill="none" xmlns="http://www.w3.org/2000/svg">
<path d="M27.8055 5.24876C27.7112 4.9359 27.3167 4.83748 27.0866 5.06762L25.5839 6.57034H23.4297V4.4161L24.9325 2.91267C25.1637 2.68132 25.0634 2.28822 24.753 2.19382C24.3276 2.06458 23.8862 2.00943 23.4341 2.00943C22.2089 2.00943 21.0604 2.47459 20.1983 3.33898C19.142 4.39452 18.6689 5.90383 18.9307 7.3774L19.0006 7.76791L7.76786 19.0006C7.31413 18.9195 7.04088 18.86 6.57618 18.86C5.36962 18.86 4.18911 19.348 3.33812 20.1983C2.13715 21.4001 1.71388 23.1597 2.19356 24.7513C2.28812 25.0648 2.68187 25.163 2.91252 24.9324L4.41534 23.4297H6.5805V25.5847L5.06722 27.0877C4.83611 27.3186 4.9358 27.7124 5.24713 27.8068C5.67151 27.9352 6.11224 28 6.56359 28C9.40845 28 11.5686 25.4333 11.0692 22.6226L10.9993 22.232L22.2313 10.9993C22.6775 11.079 22.9623 11.1404 23.423 11.1392C24.6318 11.1392 25.8115 10.6519 26.661 9.80169C27.8628 8.60052 28.2855 6.84131 27.8055 5.24876Z" fill="#D4D8DD"/>
<path d="M26.8862 21.4981L21.544 16.2086C21.1876 15.8529 20.7445 15.5743 20.2592 15.38L15.3292 20.31C15.5235 20.7955 15.8023 21.2389 16.1584 21.5957L21.4999 26.8845C22.9846 28.3692 25.3947 28.3745 26.8862 26.8845C28.371 25.3989 28.371 22.9829 26.8862 21.4981ZM24.7149 24.7131C24.4173 25.0107 23.9354 25.0107 23.6378 24.7131L19.8949 21.0229C19.5973 20.7254 19.5973 20.2433 19.8949 19.9458C20.1924 19.6483 20.6744 19.6483 20.972 19.9458L24.7149 23.636C25.0124 23.9335 25.0124 24.4155 24.7149 24.7131Z" fill="#D4D8DD"/>
<path d="M8.5146 6.36014L8.51349 6.36049L9.20045 5.67352C9.39957 5.47421 9.35772 5.14185 9.11712 4.99753L4.46689 2.10874C4.16723 1.92892 3.78358 1.97615 3.53653 2.2233L2.22353 3.5363C1.97628 3.78355 1.92915 4.16736 2.10917 4.46707L4.99994 9.11506C5.14477 9.35597 5.47799 9.39614 5.67584 9.19809L6.36001 8.51402L11.2305 13.3845L13.3847 11.2302L8.5146 6.36014Z" fill="#D4D8DD"/>
</svg>
