<svg width="30" height="30" viewBox="0 0 30 30" fill="none" xmlns="http://www.w3.org/2000/svg">
<g clip-path="url(#clip0_1_366)">
<g clip-path="url(#clip1_1_366)">
<path d="M3.52764 19.5144L0.0331629 23.0088C-0.0256067 23.0649 -0.00363402 23.1662 0.07828 23.1905L4.28695 24.4689C4.88402 24.6506 5.34926 25.1158 5.53084 25.7128L6.8093 29.9215C6.83355 30.0034 6.93492 30.0254 6.99094 29.9666L11.6666 25.291C8.20717 24.4316 5.35113 22.2749 3.52764 19.5144Z" fill="#D4D8DD"/>
<path d="M29.9668 23.0088L26.4724 19.5144C24.6619 22.2552 21.8147 24.4262 18.3333 25.291L23.0089 29.9667C23.065 30.0254 23.1663 30.0035 23.1906 29.9216L24.469 25.7129C24.6507 25.1158 25.1159 24.6506 25.713 24.469L29.9217 23.1905C30.0038 23.1661 30.0255 23.0647 29.9668 23.0088Z" fill="#D4D8DD"/>
<path d="M26.9686 11.9688C26.9686 5.3696 21.5998 0.000183105 15 0.000183105C8.40017 0.000183105 3.03134 5.3696 3.03134 11.9688C3.03134 17.9357 7.42464 22.9089 13.1608 23.7969C20.4268 24.9271 26.9686 19.2716 26.9686 11.9688ZM5.67035 14.8856C3.6965 8.57497 8.4481 2.19563 15 2.19563C22.3191 2.19563 27.1568 10.0618 23.589 16.631C19.4702 24.1867 8.26265 23.1312 5.67035 14.8856Z" fill="#D4D8DD"/>
<path d="M15 3.9534C10.5804 3.9534 6.98395 7.54924 6.98395 11.9688C6.98395 18.4711 14.356 22.2631 19.6352 18.5048C20.7663 17.702 21.6874 16.6044 22.2801 15.3221C24.7428 10.0201 20.8169 3.9534 15 3.9534ZM19.0458 10.8445C18.9457 10.9188 14.0758 14.5333 14.0478 14.554C13.6961 14.8162 13.1957 14.781 12.883 14.4497C10.6461 12.0658 10.825 12.2561 10.7713 12.1998C10.3955 11.7995 10.4739 11.1521 10.9442 10.8545C10.9448 10.8539 10.9454 10.8533 10.9459 10.8533C11.2952 10.6342 11.761 10.6852 12.0534 10.9969C12.5264 11.501 12.208 11.1617 13.6289 12.6755C13.7821 12.5613 15.5843 11.2244 18.0637 9.3844C18.4534 9.09494 19.0042 9.17639 19.293 9.56604C19.5577 9.92135 19.5568 10.4659 19.0458 10.8445Z" fill="#D4D8DD"/>
</g>
</g>
<defs>
<clipPath id="clip0_1_366">
<rect width="30" height="30" fill="white"/>
</clipPath>
<clipPath id="clip1_1_366">
<rect width="30" height="30" fill="white"/>
</clipPath>
</defs>
</svg>
