<svg width="40" height="40" viewBox="0 0 40 40" fill="none" xmlns="http://www.w3.org/2000/svg">
<path d="M24.3125 27.4685C24.3125 27.3297 24.2638 27.1908 24.1667 27.052C23.3888 26.1211 22.764 25.3225 22.2915 24.6563C22.5832 24.0869 22.8055 23.559 22.9578 23.0733L26.1871 22.5733C26.3125 22.5592 26.4236 22.4865 26.5207 22.3549C26.6179 22.2224 26.666 22.0872 26.666 21.9484V18.094C26.666 17.9414 26.6179 17.8058 26.5207 17.6879C26.4236 17.5701 26.3055 17.4969 26.1666 17.4696L22.9997 16.9904C22.8466 16.518 22.6107 15.9483 22.2913 15.2819C22.4994 14.9762 22.8123 14.5594 23.229 14.0319C23.6456 13.504 23.9377 13.1292 24.104 12.9069C24.2014 12.768 24.2498 12.636 24.2498 12.5111C24.2498 12.136 23.2497 11.0249 21.2503 9.17763C21.1115 9.06671 20.9656 9.01118 20.8123 9.01118C20.646 9.01118 20.5071 9.05927 20.3955 9.1569L17.9371 11.0111C17.3678 10.7195 16.847 10.5043 16.3747 10.365L15.8955 7.17767C15.8819 7.03881 15.8123 6.91709 15.6873 6.81304C15.5623 6.70891 15.4234 6.65674 15.2705 6.65674H11.3958C11.0764 6.65674 10.868 6.8234 10.7709 7.15665C10.604 7.79565 10.4445 8.86532 10.2917 10.365C9.69455 10.5594 9.15983 10.7816 8.68764 11.0316L6.29189 9.15683C6.15303 9.05942 6.00724 9.01111 5.85437 9.01111C5.59014 9.01111 5.04163 9.42076 4.20839 10.2404C3.375 11.0597 2.80525 11.6777 2.49995 12.0944C2.4026 12.2057 2.35422 12.3446 2.35422 12.5113C2.35422 12.6361 2.40253 12.775 2.49995 12.9278C3.27758 13.8586 3.9025 14.6571 4.37483 15.3235C4.08324 15.8933 3.86112 16.4208 3.70847 16.9068L0.479193 17.4065C0.354049 17.4204 0.243062 17.4932 0.145721 17.6249C0.0485979 17.7571 0 17.8923 0 18.0311V21.8853C0 22.0382 0.0485979 22.1735 0.145721 22.2913C0.243062 22.4097 0.360982 22.4756 0.500135 22.4894L3.66673 22.9893C3.8334 23.5169 4.07668 24.0866 4.39607 24.6976C4.1738 25.0035 3.84755 25.4273 3.41696 25.9686C2.98607 26.5106 2.70149 26.8786 2.5627 27.0729C2.4655 27.2117 2.41683 27.3441 2.41683 27.4685C2.41683 27.844 3.41696 28.9548 5.41691 30.8022C5.55577 30.9131 5.70142 30.9682 5.85444 30.9682C6.03497 30.9682 6.17383 30.9201 6.27095 30.8227L8.72923 28.9688C9.29847 29.2604 9.81933 29.4754 10.2917 29.6144L10.7709 32.802C10.7846 32.9408 10.8543 33.0626 10.9791 33.1665C11.1041 33.2706 11.243 33.3226 11.3958 33.3226H15.2705C15.5901 33.3226 15.7983 33.1561 15.8956 32.8227C16.0623 32.1697 16.2218 31.0935 16.3748 29.5933C16.9302 29.4273 17.4648 29.2113 17.9788 28.9478L20.3746 30.8227C20.5135 30.9201 20.6593 30.9682 20.8122 30.9682C21.0761 30.9682 21.6215 30.5552 22.4478 29.7284C23.2738 28.9026 23.847 28.2805 24.1666 27.864C24.2638 27.7671 24.3125 27.6353 24.3125 27.4685ZM17.1039 23.7608C16.0625 24.8021 14.8054 25.3229 13.3333 25.3229C11.8609 25.3229 10.6038 24.802 9.5624 23.7608C8.52083 22.719 7.99997 21.4619 7.99997 19.9897C7.99997 18.5176 8.52083 17.2606 9.5624 16.219C10.6038 15.1773 11.8609 14.6566 13.3333 14.6566C14.8054 14.6566 16.0625 15.1773 17.1039 16.219C18.1457 17.2606 18.6664 18.5176 18.6664 19.9897C18.6664 21.4619 18.1458 22.719 17.1039 23.7608Z" fill="#B3B3B3"/>
<path d="M36.8956 28.5523C36.7153 28.1498 36.5067 27.7887 36.2708 27.469C36.9793 25.8993 37.3331 24.9409 37.3331 24.5939C37.3331 24.5389 37.3059 24.49 37.2499 24.4483C35.5828 23.4762 34.722 22.99 34.6664 22.99L34.5416 23.0319C33.9722 23.6015 33.333 24.3791 32.6249 25.3652C32.3473 25.3376 32.1392 25.3233 32.0004 25.3233C31.8611 25.3233 31.653 25.3376 31.3751 25.3652C31.1814 25.0734 30.8198 24.6044 30.2921 23.9589C29.7645 23.3134 29.4448 22.9901 29.3337 22.9901C29.306 22.9901 29.0977 23.1011 28.7086 23.3239C28.3199 23.5462 27.9101 23.7819 27.4795 24.0324C27.0486 24.2829 26.8061 24.4211 26.7504 24.4491C26.6945 24.4905 26.6669 24.5395 26.6669 24.5944C26.6669 24.9421 27.0211 25.8997 27.7293 27.4696C27.4936 27.7893 27.285 28.1503 27.1045 28.5526C25.0349 28.7607 24.0001 28.9762 24.0001 29.1984V32.1149C24.0001 32.3371 25.0349 32.5524 27.1045 32.7606C27.2708 33.1358 27.4794 33.4968 27.7293 33.8434C27.0211 35.4132 26.6669 36.3716 26.6669 36.7186C26.6669 36.7741 26.6945 36.823 26.7504 36.8645C28.4445 37.8506 29.306 38.3436 29.3337 38.3436C29.4448 38.3436 29.7644 38.0172 30.2921 37.3644C30.8197 36.7114 31.1809 36.2397 31.3751 35.948C31.6528 35.9753 31.8611 35.9892 32.0004 35.9892C32.1392 35.9892 32.3473 35.9753 32.6249 35.948C32.819 36.2397 33.1803 36.7114 33.708 37.3644C34.2356 38.0172 34.555 38.3436 34.6664 38.3436C34.6941 38.3436 35.5557 37.8504 37.2499 36.8645C37.3059 36.823 37.3331 36.7744 37.3331 36.7186C37.3331 36.3715 36.9788 35.4131 36.2708 33.8434C36.5208 33.4968 36.729 33.1358 36.8956 32.7606C38.9651 32.5524 40 32.3371 40 32.1149V29.1984C40 28.9761 38.9651 28.7606 36.8956 28.5523ZM33.885 32.5417C33.3648 33.0627 32.7361 33.3236 31.9999 33.3236C31.2635 33.3236 30.635 33.0627 30.1146 32.5417C29.5936 32.0208 29.3329 31.3926 29.3329 30.6564C29.3329 29.9345 29.5971 29.309 30.125 28.7816C30.6526 28.254 31.2777 27.99 31.9998 27.99C32.7218 27.99 33.3473 28.2537 33.8751 28.7816C34.4025 29.309 34.6668 29.9345 34.6668 30.6564C34.6663 31.3926 34.4061 32.0208 33.885 32.5417Z" fill="#B3B3B3"/>
<path d="M36.8956 7.21891C36.7153 6.81612 36.5067 6.45506 36.2708 6.13538C36.9793 4.56617 37.3331 3.60778 37.3331 3.26059C37.3331 3.20528 37.3059 3.15646 37.2499 3.11472C35.5828 2.14255 34.722 1.65649 34.6664 1.65649L34.5416 1.69809C33.9722 2.26784 33.333 3.0454 32.6249 4.03144C32.3473 4.00386 32.1392 3.98985 32.0004 3.98985C31.8611 3.98985 31.653 4.00386 31.3751 4.03144C31.1814 3.73978 30.8198 3.2711 30.2921 2.62531C29.7645 1.97939 29.4448 1.65657 29.3337 1.65657C29.306 1.65657 29.0977 1.76755 28.7086 1.98997C28.3199 2.21245 27.9101 2.44844 27.4795 2.6985C27.0486 2.94864 26.8061 3.08743 26.7504 3.11501C26.6945 3.15668 26.6669 3.20528 26.6669 3.26088C26.6669 3.60807 27.0211 4.56653 27.7293 6.13582C27.4936 6.45543 27.285 6.81641 27.1045 7.2192C25.0349 7.42738 24.0001 7.64257 24.0001 7.86484V10.7815C24.0001 11.0036 25.0349 11.219 27.1045 11.4272C27.2708 11.802 27.4794 12.1633 27.7293 12.5105C27.0211 14.0801 26.6669 15.0381 26.6669 15.3855C26.6669 15.4407 26.6945 15.4895 26.7504 15.5312C28.4445 16.5172 29.306 17.0103 29.3337 17.0103C29.4448 17.0103 29.7644 16.684 30.2921 16.0312C30.8197 15.3783 31.1809 14.9064 31.3751 14.6145C31.6528 14.6421 31.8611 14.6562 32.0004 14.6562C32.1392 14.6562 32.3473 14.6421 32.6249 14.6145C32.819 14.9064 33.1803 15.3782 33.708 16.0312C34.2356 16.684 34.555 17.0103 34.6664 17.0103C34.6941 17.0103 35.5557 16.5172 37.2499 15.5312C37.3059 15.4895 37.3331 15.4409 37.3331 15.3855C37.3331 15.0381 36.9788 14.0801 36.2708 12.5105C36.5208 12.1633 36.729 11.8022 36.8956 11.4272C38.9651 11.219 40 11.0036 40 10.7815V7.86484C40 7.64257 38.9651 7.42731 36.8956 7.21891ZM33.885 11.2085C33.3648 11.7294 32.7361 11.9898 31.9999 11.9898C31.2635 11.9898 30.635 11.7294 30.1146 11.2085C29.5936 10.6878 29.3329 10.0593 29.3329 9.32314C29.3329 8.60096 29.5971 7.97583 30.125 7.44803C30.6526 6.92024 31.2777 6.65631 31.9998 6.65631C32.7218 6.65631 33.3473 6.92054 33.8751 7.44803C34.4025 7.97575 34.6668 8.60096 34.6668 9.32314C34.6663 10.0593 34.4061 10.6878 33.885 11.2085Z" fill="#B3B3B3"/>
</svg>
