<svg width="40" height="40" viewBox="0 0 40 40" fill="none" xmlns="http://www.w3.org/2000/svg">
<g clip-path="url(#clip0_1_181)">
<g clip-path="url(#clip1_1_181)">
<path d="M4.70351 26.019L0.0442171 30.6783C-0.0341422 30.753 -0.00484536 30.8881 0.104373 30.9205L5.71594 32.6251C6.51203 32.8673 7.13234 33.4876 7.37445 34.2837L9.07906 39.8952C9.1114 40.0044 9.24656 40.0337 9.32125 39.9554L15.5555 33.7212C10.9429 32.5754 7.13484 29.6997 4.70351 26.019Z" fill="#B3B3B3"/>
<path d="M39.9557 30.6783L35.2964 26.019C32.8825 29.6734 29.0862 32.5681 24.4443 33.7212L30.6786 39.9554C30.7532 40.0338 30.8884 40.0045 30.9207 39.8953L32.6254 34.2837C32.8675 33.4876 33.4879 32.8673 34.2839 32.6252L39.8955 30.9206C40.005 30.888 40.0339 30.7528 39.9557 30.6783Z" fill="#B3B3B3"/>
<path d="M35.9582 15.9584C35.9582 7.15946 28.7998 0.000244141 20 0.000244141C11.2002 0.000244141 4.04181 7.15946 4.04181 15.9584C4.04181 23.9143 9.89954 30.5452 17.5477 31.7292C27.2358 33.2362 35.9582 25.6954 35.9582 15.9584ZM7.56048 19.8474C4.92868 11.4333 11.2642 2.92751 20 2.92751C29.7588 2.92751 36.2091 13.4157 31.452 22.1747C25.9603 32.249 11.0169 30.8416 7.56048 19.8474Z" fill="#B3B3B3"/>
<path d="M20 5.27124C14.1072 5.27124 9.31195 10.0657 9.31195 15.9585C9.31195 24.6282 19.1414 29.6841 26.1803 24.6731C27.6884 23.6026 28.9166 22.1392 29.7068 20.4294C32.9905 13.3602 27.7559 5.27124 20 5.27124ZM25.3944 14.4594C25.2609 14.5584 18.7677 19.3777 18.7305 19.4054C18.2615 19.7549 17.5943 19.708 17.1773 19.2663C14.1948 16.0877 14.4334 16.3416 14.3618 16.2664C13.8606 15.7327 13.9652 14.8695 14.5923 14.4727C14.593 14.4719 14.5938 14.4712 14.5946 14.4712C15.0602 14.179 15.6813 14.2469 16.0712 14.6626C16.7019 15.3348 16.2773 14.8823 18.1719 16.9008C18.3761 16.7485 20.7791 14.9658 24.085 12.5126C24.6045 12.1266 25.3389 12.2352 25.724 12.7548C26.077 13.2285 26.0757 13.9545 25.3944 14.4594Z" fill="#B3B3B3"/>
</g>
</g>
<defs>
<clipPath id="clip0_1_181">
<rect width="40" height="40" fill="white"/>
</clipPath>
<clipPath id="clip1_1_181">
<rect width="40" height="40" fill="white"/>
</clipPath>
</defs>
</svg>
