<svg width="80" height="80" viewBox="0 0 80 80" fill="none" xmlns="http://www.w3.org/2000/svg">
<g clip-path="url(#clip0_1_211)">
<rect x="40" y="-2.00049" width="59.3972" height="59.3972" rx="8" transform="rotate(45 40 -2.00049)" fill="#004166"/>
<path fill-rule="evenodd" clip-rule="evenodd" d="M34.766 26.3875L35.269 25.5163C35.285 25.4888 35.3154 25.4752 35.3466 25.4818L37.3362 25.9047C37.4306 25.9248 37.4825 25.887 37.5428 25.8379C38.0516 25.4236 38.6455 25.0807 39.2602 24.8509C39.3218 24.8278 39.3688 24.779 39.3892 24.7164L39.4903 24.4061L39.491 24.4063L40.0175 22.786C40.0274 22.7558 40.0544 22.7361 40.0862 22.7361H42.7502C42.7821 22.7361 42.8091 22.7557 42.8189 22.786L43.4463 24.717C43.4762 24.8087 43.5346 24.8349 43.6074 24.8626C44.2226 25.0969 44.8122 25.4414 45.3203 25.8597C45.3707 25.9012 45.4366 25.917 45.5004 25.9035L45.8182 25.8364L45.8183 25.837L47.4899 25.4818C47.521 25.4751 47.5515 25.4887 47.5674 25.5162L48.2336 26.67L48.8996 27.8216C48.9155 27.8492 48.9121 27.8824 48.8907 27.9061L47.5299 29.4174C47.4706 29.4833 47.4704 29.5457 47.4826 29.622C47.5868 30.2742 47.5848 30.9611 47.478 31.6129C47.4674 31.6774 47.4868 31.7418 47.5304 31.7902L47.7463 32.0305L47.746 32.0307L48.8906 33.3021C48.9119 33.3258 48.9154 33.359 48.8995 33.3865L48.0698 34.824L48.0689 34.8234L47.5674 35.6918C47.5515 35.7194 47.521 35.733 47.4899 35.7263L45.5009 35.3035C45.4065 35.2834 45.3546 35.3212 45.2943 35.3703C44.9404 35.6585 44.549 35.9094 44.1394 36.1128C44.1212 36.1218 44.1022 36.123 44.0831 36.1162C44.064 36.1094 44.05 36.0966 44.0416 36.0781C43.7806 35.5066 43.4684 34.9526 43.1052 34.4233C43.0928 34.4052 43.0893 34.3847 43.095 34.3636C43.1008 34.3424 43.1142 34.3266 43.1341 34.3172C45.7356 33.0919 46.3105 29.7105 44.3112 27.7112C42.7134 26.1134 40.1234 26.1133 38.5254 27.7112C37.8843 28.3523 37.4927 29.1529 37.3654 30.0458C37.3622 30.0675 37.351 30.085 37.3324 30.0967C37.3138 30.1084 37.2932 30.1111 37.2723 30.1046C36.6642 29.9143 36.0429 29.7778 35.4158 29.6947C35.377 29.6896 35.3493 29.6543 35.3535 29.6154C35.3723 29.4418 35.325 29.4388 35.09 29.1774L35.0903 29.1771L33.9458 27.9061C33.9246 27.8824 33.921 27.8492 33.937 27.8217L34.7652 26.387L34.766 26.3875ZM29.9063 40.878C29.8337 41.0422 29.6693 41.1569 29.4782 41.1569C28.5278 41.1569 27.5774 41.1569 26.627 41.1569C26.6062 41.1569 26.5883 41.1647 26.5741 41.18C26.5599 41.1952 26.5534 41.2137 26.5549 41.2344C26.8381 45.1033 30.0628 48.1051 33.951 48.1051C37.8394 48.1051 41.064 45.1033 41.3473 41.2345C41.3488 41.2137 41.3423 41.1953 41.3281 41.18C41.3139 41.1647 41.296 41.157 41.2751 41.157C40.0851 41.157 38.8952 41.157 37.7052 41.157V41.1562C37.5221 41.1561 37.3484 41.0478 37.2738 40.8681L36.0673 37.9724C36.0557 37.9446 36.0296 37.9274 35.9994 37.928C35.9693 37.9285 35.9438 37.9464 35.9331 37.9746L33.7214 43.8158C33.5746 44.2193 33.0286 44.2308 32.8565 43.8574L30.8178 39.4403C30.806 39.4149 30.7826 39.3993 30.7546 39.3984C30.7266 39.3975 30.7021 39.4115 30.6887 39.4361L29.9088 40.8728C29.9079 40.8746 29.9072 40.8762 29.9063 40.878ZM29.2222 40.1832L30.3822 38.0462C30.5661 37.7082 31.0563 37.729 31.2151 38.074L31.2158 38.0737L33.1662 42.2993C33.1786 42.3262 33.2046 42.3422 33.2342 42.3412C33.2639 42.3402 33.2887 42.3224 33.2992 42.2946L35.5401 36.3763C35.6899 35.9794 36.2472 35.9747 36.408 36.3618L36.4083 36.3617L37.9978 40.1766C38.0093 40.204 38.0347 40.221 38.0645 40.221H41.2752C41.296 40.221 41.3139 40.2131 41.3282 40.1978C41.3423 40.1826 41.3489 40.1642 41.3474 40.1434C41.0642 36.2746 37.8394 33.2728 33.9511 33.2728C30.0628 33.2728 26.8381 36.2746 26.5549 40.1434C26.5534 40.1642 26.5599 40.1826 26.5741 40.1978C26.5882 40.2131 26.6062 40.221 26.627 40.221H29.1587C29.1859 40.221 29.2092 40.2071 29.2222 40.1832ZM45.2097 49.1477L44.4874 49.87C44.4592 49.8982 44.4134 49.8982 44.3852 49.87L41.6558 47.1406C41.6293 47.1141 41.6275 47.0723 41.6514 47.0435C44.9087 43.106 44.6671 37.2869 41.0102 33.63C37.1118 29.7315 30.7908 29.7314 26.8922 33.63C22.9938 37.5285 22.9937 43.8495 26.8922 47.748C30.5492 51.405 36.3682 51.6465 40.3058 48.3891C40.3345 48.3654 40.3764 48.3671 40.4028 48.3935L43.1322 51.123C43.1604 51.1511 43.1604 51.197 43.1322 51.2251L42.4099 51.9474C42.3842 51.9731 42.3842 52.0193 42.4099 52.045L47.6094 57.2446C47.6352 57.2703 47.6813 57.2702 47.707 57.2446L50.5069 54.4448C50.5326 54.4191 50.5326 54.373 50.5069 54.3472L45.3073 49.1477C45.2815 49.122 45.2354 49.1219 45.2097 49.1477ZM40.0218 34.6183C36.669 31.2655 31.2333 31.2655 27.8805 34.6184C24.5277 37.9712 24.5277 43.4069 27.8805 46.7597C31.2333 50.1125 36.669 50.1125 40.0218 46.7597C43.3746 43.4068 43.3746 37.9711 40.0218 34.6183ZM49.979 37.1189C49.6377 37.2469 49.1859 37.4933 48.9122 37.7296C48.9116 37.7302 48.9111 37.7306 48.9106 37.7311C48.7728 37.858 48.5776 37.9185 48.3804 37.8767L47.318 37.6509C47.2869 37.6442 47.2563 37.6578 47.2404 37.6854L46.6488 38.71C46.6329 38.7375 46.6364 38.7708 46.6577 38.7944L47.3837 39.6007L47.3831 39.6012C47.615 39.8591 47.5166 40.1007 47.491 40.4126C47.4689 40.6833 47.4766 41.0778 47.5243 41.3397C47.5245 41.3403 47.5246 41.3408 47.5246 41.3414C47.5622 41.5219 47.5163 41.7173 47.3836 41.8647L46.6576 42.671C46.6363 42.6947 46.6328 42.7279 46.6487 42.7555L47.2414 43.7799C47.2573 43.8074 47.2878 43.821 47.3189 43.8144L48.3802 43.5888L48.3804 43.59C48.552 43.5538 48.738 43.593 48.884 43.713C49.1652 43.9444 49.6031 44.2148 49.9465 44.3344C49.9472 44.3346 49.9479 44.3349 49.9486 44.3351C50.1274 44.3911 50.2774 44.5299 50.3397 44.7216L50.6739 45.7503C50.6838 45.7806 50.7108 45.8002 50.7426 45.8002H51.9278C51.9596 45.8002 51.9866 45.7806 51.9965 45.7503L52.3306 44.7219L52.3318 44.7223C52.3863 44.555 52.5138 44.4132 52.6915 44.347C53.0318 44.2198 53.4859 43.9718 53.7586 43.7362C53.7593 43.7357 53.7598 43.7353 53.7603 43.7347C53.8982 43.6078 54.0934 43.5473 54.2906 43.589L55.3526 43.8147C55.3838 43.8214 55.4142 43.8078 55.4302 43.7802L56.0217 42.7556C56.0376 42.7281 56.0341 42.6948 56.0128 42.6712L55.2866 41.8647L55.2872 41.8642C55.0551 41.6061 55.1538 41.3646 55.1794 41.0526C55.2015 40.7816 55.1938 40.3878 55.1461 40.1258C55.146 40.1251 55.1458 40.1246 55.1458 40.124C55.1082 39.9436 55.1541 39.7482 55.2869 39.6008L56.0129 38.7945C56.0342 38.7708 56.0377 38.7376 56.0218 38.7101L55.4302 37.6854C55.4142 37.6579 55.3838 37.6443 55.3526 37.651L54.2902 37.8768L54.2899 37.8756C54.1183 37.9118 53.9323 37.8726 53.7863 37.7526C53.5051 37.5212 53.0671 37.2508 52.7238 37.1312C52.7231 37.131 52.7224 37.1307 52.7217 37.1305C52.543 37.0745 52.393 36.9358 52.3306 36.744L51.9964 35.7154C51.9866 35.6851 51.9595 35.6654 51.9277 35.6654H50.7426C50.7107 35.6654 50.6837 35.685 50.6738 35.7154L50.3396 36.744L50.3385 36.7436C50.2842 36.911 50.1566 37.0527 49.979 37.1189ZM51.3353 38.3981C52.6246 38.3981 53.6701 39.4435 53.6701 40.7329C53.6701 42.0222 52.6246 43.0677 51.3353 43.0677C50.046 43.0677 49.0006 42.0222 49.0006 40.7329C49.0006 39.4435 50.046 38.3981 51.3353 38.3981Z" fill="white"/>
</g>
<defs>
<clipPath id="clip0_1_211">
<rect width="80" height="80" fill="white"/>
</clipPath>
</defs>
</svg>
