<svg width="80" height="80" viewBox="0 0 80 80" fill="none" xmlns="http://www.w3.org/2000/svg">
<g clip-path="url(#clip0_1_215)">
<rect x="40" y="-2.00049" width="59.3972" height="59.3972" rx="8" transform="rotate(45 40 -2.00049)" fill="#004166"/>
<path d="M31.8541 50.9165C29.586 50.9165 27.5687 49.4644 26.8363 47.3025L26.7867 47.1396C26.6138 46.5673 26.5416 46.0856 26.5416 45.6039V35.9451L23.1047 47.4173C22.6627 49.1045 23.67 50.8541 25.3601 51.3202L47.2661 57.1867C47.5395 57.2575 47.8129 57.2915 48.0821 57.2915C49.4931 57.2915 50.7823 56.3551 51.1435 54.9752L52.42 50.9165H31.8541Z" fill="white"/>
<path d="M35.7498 36.0414C37.3124 36.0414 38.5832 34.7707 38.5832 33.2081C38.5832 31.6455 37.3124 30.3748 35.7498 30.3748C34.1872 30.3748 32.9165 31.6455 32.9165 33.2081C32.9165 34.7707 34.1872 36.0414 35.7498 36.0414Z" fill="white"/>
<path d="M53.4999 26.0415H32.4999C30.5707 26.0415 28.9999 27.6544 28.9999 29.6353V45.4478C28.9999 47.4286 30.5707 49.0415 32.4999 49.0415H53.4999C55.4291 49.0415 56.9999 47.4286 56.9999 45.4478V29.6353C56.9999 27.6544 55.4291 26.0415 53.4999 26.0415ZM32.4999 28.9165H53.4999C53.8863 28.9165 54.1999 29.2385 54.1999 29.6353V39.8401L49.7773 34.5414C49.3083 33.9765 48.6293 33.6746 47.8999 33.6574C47.1747 33.6617 46.4943 33.9923 46.0295 34.5644L40.8299 40.9728L39.1359 39.2378C38.1783 38.2545 36.6201 38.2545 35.6639 39.2378L31.7999 43.2038V29.6353C31.7999 29.2385 32.1135 28.9165 32.4999 28.9165Z" fill="white"/>
</g>
<defs>
<clipPath id="clip0_1_215">
<rect width="80" height="80" fill="white"/>
</clipPath>
</defs>
</svg>
