<svg width="80" height="80" viewBox="0 0 80 80" fill="none" xmlns="http://www.w3.org/2000/svg">
<g clip-path="url(#clip0_1_232)">
<rect x="40" y="-2.00049" width="59.3972" height="59.3972" rx="8" transform="rotate(45 40 -2.00049)" fill="#004166"/>
<path d="M47.2 30.4001L44.3829 26.0452C44.2488 25.8381 44.0286 25.6872 43.7711 25.6274C43.515 25.5699 43.2403 25.6034 43.0121 25.7267L34.4 30.3893L47.2 30.4001Z" fill="white"/>
<path d="M28.0364 31.7335C27.2964 31.7335 26.6909 31.1335 26.6909 30.4001C26.6909 29.6668 27.2964 29.0668 28.0364 29.0668H32.5705L37.0644 26.4001H28.0364C26.0451 26.4001 24.3902 27.8401 24.0673 29.7335C24.0404 29.8401 24 29.9468 24 30.0668V50.4001C24 52.6001 25.8164 54.4001 28.0364 54.4001H50.9091C52.3891 54.4001 53.6 53.2001 53.6 51.7335V49.0668H50.2364C46.8996 49.0668 44.1818 46.3735 44.1818 43.0668C44.1818 39.7601 46.8996 37.0668 50.2364 37.0668H53.6V34.4001C53.6 32.9335 52.3891 31.7335 50.9091 31.7335H28.0364ZM49.5636 29.0668C49.5636 27.7201 48.5545 26.6001 47.236 26.4268L49.5636 30.4001V29.0668Z" fill="white"/>
<path d="M54.96 39.2002H49.76C47.4664 39.2002 45.6 40.9949 45.6 43.2002C45.6 45.4055 47.4664 47.2002 49.76 47.2002H54.96C55.5341 47.2002 56 46.7522 56 46.2002V40.2002C56 39.6482 55.5341 39.2002 54.96 39.2002ZM49.76 44.5335C48.9945 44.5335 48.3733 43.9362 48.3733 43.2002C48.3733 42.4642 48.9945 41.8669 49.76 41.8669C50.5254 41.8669 51.1466 42.4642 51.1466 43.2002C51.1466 43.9362 50.5254 44.5335 49.76 44.5335Z" fill="white"/>
</g>
<defs>
<clipPath id="clip0_1_232">
<rect width="80" height="80" fill="white"/>
</clipPath>
</defs>
</svg>
