<svg width="80" height="80" viewBox="0 0 80 80" fill="none" xmlns="http://www.w3.org/2000/svg">
<g clip-path="url(#clip0_1_239)">
<rect x="40" y="-2.00049" width="59.3972" height="59.3972" rx="8" transform="rotate(45 40 -2.00049)" fill="#004166"/>
<path d="M34.5571 31.4295C34.5571 28.4311 36.9937 26 39.999 26C43.0064 26 45.4409 28.4311 45.4409 31.4295C45.4409 34.6114 43.7112 38.6431 39.999 38.6431C36.1743 38.6431 34.5571 34.428 34.5571 31.4295ZM44.2278 41.2145H35.7722C32.5637 41.2145 29.9368 43.6477 29.9368 46.6203V54H50.0632V46.6203C50.0632 43.6477 47.4363 41.2145 44.2278 41.2145ZM51.101 38.6302C53.6457 38.6302 54.8327 35.8647 54.8327 33.6838C54.8327 31.628 53.1614 29.9627 51.101 29.9627C49.0427 29.9627 47.3715 31.628 47.3715 33.6838C47.3714 35.7396 48.4806 38.6302 51.101 38.6302ZM28.8969 38.6302C31.5195 38.6302 32.6286 35.7396 32.6286 33.6838C32.6286 31.628 30.9573 29.9627 28.8969 29.9627C26.8387 29.9627 25.1674 31.628 25.1674 33.6838C25.1674 35.8647 26.3543 38.6302 28.8969 38.6302ZM32.0449 40.4006C31.9625 40.3959 31.8798 40.3926 31.7962 40.3926H25.9998C23.7988 40.3926 22 42.0601 22 44.0985V49.1571H28.195V46.6203C28.195 43.9569 29.7481 41.6296 32.0449 40.4006ZM54.0003 40.3926H48.2039C48.1203 40.3926 48.0376 40.3959 47.9553 40.4006C50.252 41.6296 51.8052 43.957 51.8052 46.6203V49.1571H58V44.0986C58 42.0601 56.1991 40.3926 54.0003 40.3926Z" fill="white"/>
</g>
<defs>
<clipPath id="clip0_1_239">
<rect width="80" height="80" fill="white"/>
</clipPath>
</defs>
</svg>
