<svg width="80" height="80" viewBox="0 0 80 80" fill="none" xmlns="http://www.w3.org/2000/svg">
<g clip-path="url(#clip0_1_228)">
<rect x="40" y="-2.00049" width="59.3972" height="59.3972" rx="8" transform="rotate(45 40 -2.00049)" fill="#004166"/>
<path fill-rule="evenodd" clip-rule="evenodd" d="M41.6401 22H46.3194V24.3479C47.8686 24.6567 49.3093 25.2662 50.5782 26.113L52.2392 24.452L55.5479 27.7608L53.887 29.4218C54.7339 30.6906 55.3431 32.1314 55.6521 33.6805H58V38.3598H55.6521C55.3434 39.9091 54.7338 41.3498 53.887 42.6187L55.5479 44.2797L52.2391 47.5884L50.5783 45.9276C49.3094 46.7746 47.8686 47.3839 46.3194 47.6928V50.0405H41.6401V47.6928C40.3907 47.4438 39.2119 46.9991 38.1369 46.3922L41.3958 43.1332C42.202 43.4262 43.0722 43.5862 43.9797 43.5862C48.1582 43.5862 51.5456 40.1988 51.5456 36.0203C51.5456 31.8417 48.1582 28.4543 43.9797 28.4543C39.8011 28.4543 36.4138 31.8417 36.4138 36.0203C36.4138 36.9278 36.5737 37.7978 36.8667 38.6041L33.6077 41.8631C33.0008 40.7881 32.5563 39.6092 32.3071 38.3599H29.9594V33.6806H32.3071C32.616 32.1313 33.2256 30.6906 34.0723 29.4217L32.4114 27.7607L35.7202 24.452L37.381 26.1129C38.6499 25.2659 40.0908 24.6567 41.64 24.3478V22H41.6401ZM49.3821 34.7245L46.1179 37.9887L42.8791 37.1209L42.0112 33.882L45.2754 30.6178C44.8598 30.5185 44.4259 30.4659 43.9798 30.4659C40.9122 30.4659 38.4255 32.9526 38.4255 36.0202C38.4255 36.8074 38.5897 37.5562 38.885 38.2347C34.9173 42.2024 33.7367 43.3831 29.7689 47.3508C29.0904 47.0554 28.3416 46.8913 27.5543 46.8913C24.4868 46.8914 22 49.3781 22 52.4457C22 55.5132 24.4868 58 27.5543 58C30.6218 58 33.1086 55.5132 33.1086 52.4457C33.1086 51.6585 32.9444 50.9097 32.6491 50.2311L41.7652 41.1151C42.4437 41.4104 43.1925 41.5746 43.9798 41.5746C47.0473 41.5746 49.5341 39.0879 49.5341 36.0203C49.534 35.5741 49.4814 35.1402 49.3821 34.7245ZM28.2682 55.1097L25.6042 54.3958L24.8903 51.7318L26.8405 49.7817L29.5045 50.4955L30.2184 53.1595L28.2682 55.1097Z" fill="white"/>
</g>
<defs>
<clipPath id="clip0_1_228">
<rect width="80" height="80" fill="white"/>
</clipPath>
</defs>
</svg>
