<svg width="173" height="70" viewBox="0 0 173 70" fill="none" xmlns="http://www.w3.org/2000/svg">
<g clip-path="url(#clip0_1_11)">
<path d="M66.4467 0.388065L56.6751 16.9997H67.4239L77.1954 0.388065H66.4467Z" fill="#888682"/>
<path d="M41.0408 48.2687L29.3149 69.7661H41.0408L52.7667 48.2687H41.0408Z" fill="#004166"/>
<path d="M25.4061 69.7661H0L12.703 48.2687H37.1319L25.4061 69.7661Z" fill="#CE0711"/>
<path d="M37.1319 0.388065L23.4517 24.817L33.2233 16.9997H52.7664L62.538 0.388065H37.1319Z" fill="#CE0711"/>
<path d="M63.1971 19.9312C64.8724 19.9312 66.4537 20.1201 67.9402 20.4976C69.4269 20.8515 70.7016 21.3709 71.7635 22.0552L69.6043 26.4439C68.684 25.8068 67.6453 25.3346 66.4891 25.0279C65.3329 24.6975 64.1293 24.5327 62.8787 24.5327C61.2506 24.5328 59.9642 24.816 59.0203 25.3824C58.0767 25.9487 57.6053 26.6801 57.6053 27.5767C57.6053 28.1194 57.8057 28.58 58.2068 28.9576C58.6079 29.3113 59.115 29.6064 59.7283 29.8423C60.3418 30.0547 61.2033 30.3139 62.3123 30.6206C63.8932 31.0454 65.1912 31.4819 66.2059 31.9302C67.2205 32.3549 68.082 32.992 68.7899 33.8413C69.5213 34.6672 69.8875 35.7648 69.8875 37.1333C69.8875 38.8323 69.4153 40.3191 68.4715 41.5933C67.5276 42.8439 66.1941 43.8229 64.4715 44.5308C62.7489 45.2151 60.7428 45.5581 58.4539 45.5581C56.4955 45.5581 54.6192 45.2979 52.826 44.7788C51.0329 44.2597 49.594 43.5986 48.5086 42.7964L50.8445 38.3726C51.9771 39.1984 53.2512 39.8354 54.6668 40.2837C56.0825 40.732 57.5338 40.9565 59.0203 40.9566C60.6013 40.9566 61.852 40.6964 62.7723 40.1773C63.6924 39.6582 64.153 38.9507 64.1531 38.0542C64.1531 37.3227 63.787 36.7677 63.0555 36.3902C62.324 35.9891 61.156 35.564 59.5516 35.1158C57.9471 34.6438 56.6375 34.1957 55.6229 33.771C54.6082 33.3227 53.7227 32.6617 52.9676 31.7886C52.2362 30.9155 51.8709 29.7591 51.8709 28.3199C51.8709 26.6445 52.3305 25.1693 53.2508 23.8951C54.1947 22.6209 55.5167 21.6418 57.2156 20.9576C58.9381 20.2733 60.9319 19.9312 63.1971 19.9312ZM20.1141 31.7183L32.9627 20.356H39.9002L26.8748 31.8238L35.4754 45.1333H29.034L22.6629 35.4341L18.6629 38.9742L17.4236 45.1333H11.7254L16.6805 20.356H22.3797L20.1141 31.7183ZM87.3621 20.356C90.4534 20.356 92.8371 21.0401 94.5125 22.4087C96.2113 23.7537 97.0603 25.6416 97.0604 28.0718C97.0604 30.1483 96.565 31.9656 95.574 33.523C94.6066 35.0568 93.2143 36.2371 91.3973 37.063C89.6039 37.8889 87.4802 38.3013 85.0262 38.3013H79.5047L78.159 45.1333H72.3895L77.3455 20.356H87.3621ZM120.692 24.9576H107.702L106.64 30.3374H118.143L117.259 34.7974H105.72L104.587 40.5318H118.108L117.153 45.1333H97.9686L102.924 20.356H121.648L120.692 24.9576ZM144.439 24.9576H131.449L130.388 30.3374H141.89L141.006 34.7974H129.467L128.334 40.5318H141.855L140.899 45.1333H121.716L126.671 20.356H145.395L144.439 24.9576ZM160.789 20.356C163.314 20.356 165.485 20.7809 167.302 21.6304C169.142 22.4563 170.546 23.6482 171.513 25.2056C172.504 26.7629 173 28.5919 173 30.6919C173 33.5705 172.351 36.1069 171.054 38.3013C169.756 40.4722 167.938 42.1594 165.602 43.3628C163.29 44.5427 160.611 45.1333 157.567 45.1333H145.462L150.418 20.356H160.789ZM152.152 40.4253H157.745C159.68 40.4253 161.355 40.0243 162.77 39.2222C164.21 38.3963 165.307 37.2747 166.062 35.8589C166.817 34.4196 167.195 32.8035 167.195 31.0103C167.195 29.1463 166.594 27.695 165.39 26.6568C164.187 25.5949 162.44 25.064 160.151 25.064H155.231L152.152 40.4253ZM47.1258 37.3814H37.1092L37.994 32.9566H48.0106L47.1258 37.3814ZM80.4246 33.6294H85.2742C87.1853 33.6294 88.6599 33.1928 89.6981 32.3199C90.7363 31.4468 91.2556 30.196 91.2557 28.5679C91.2557 27.388 90.8549 26.5026 90.0526 25.9126C89.2738 25.3227 88.1407 25.0279 86.6541 25.0279H82.159L80.4246 33.6294Z" fill="white"/>
<path d="M63.7151 60.8637H59.0745L57.7429 62.9995H55.9104L61.909 53.7709H63.6097L65.9036 62.9995H64.2029L63.7151 60.8637ZM63.3987 59.519L62.4627 55.4584L59.9182 59.519H63.3987Z" fill="white"/>
<path d="M72.1708 63.1313C71.0458 63.1313 70.1625 62.8501 69.5209 62.2876C68.8881 61.7251 68.5717 60.9516 68.5717 59.9672C68.5717 59.6772 68.6068 59.3476 68.6772 58.9785L69.7187 53.7709H71.4325L70.391 58.9521C70.3295 59.3036 70.2987 59.5761 70.2987 59.7695C70.2987 60.3847 70.4745 60.8505 70.8261 61.1669C71.1777 61.4746 71.683 61.6284 72.3422 61.6284C73.0805 61.6284 73.6694 61.413 74.1088 60.9824C74.5571 60.5517 74.8779 59.8705 75.0712 58.9389L76.0996 53.7709H77.7871L76.7324 59.0576C76.4599 60.4111 75.9414 61.4306 75.1767 62.1162C74.4121 62.7929 73.4101 63.1313 72.1708 63.1313Z" fill="white"/>
<path d="M82.6699 55.2211H79.6113L79.9013 53.7709H87.7324L87.4292 55.2211H84.3706L82.8281 62.9995H81.1142L82.6699 55.2211Z" fill="white"/>
<path d="M92.7132 63.1313C91.7991 63.1313 91.0081 62.9687 90.3401 62.6435C89.6809 62.3095 89.1756 61.8481 88.824 61.2592C88.4724 60.6616 88.2967 59.9716 88.2967 59.1894C88.2967 58.1523 88.5296 57.2118 88.9954 56.3681C89.47 55.5243 90.138 54.8607 90.9993 54.3773C91.8606 53.8851 92.845 53.6391 93.9525 53.6391C94.8665 53.6391 95.6532 53.806 96.3123 54.14C96.9803 54.4652 97.4901 54.9267 97.8417 55.5243C98.1932 56.1132 98.369 56.7987 98.369 57.581C98.369 58.6181 98.1317 59.5585 97.6571 60.4023C97.1913 61.246 96.5277 61.914 95.6663 62.4062C94.805 62.8896 93.8206 63.1313 92.7132 63.1313ZM92.8582 61.6284C93.6053 61.6284 94.2645 61.4526 94.8358 61.101C95.4159 60.7407 95.8597 60.2617 96.1673 59.664C96.4837 59.0576 96.6419 58.3984 96.6419 57.6864C96.6419 56.913 96.3914 56.2978 95.8905 55.8407C95.3983 55.3749 94.6995 55.142 93.7943 55.142C93.0472 55.142 92.3836 55.3222 91.8035 55.6825C91.2322 56.0341 90.7928 56.5131 90.4851 57.1196C90.1775 57.7172 90.0237 58.372 90.0237 59.0839C90.0237 59.8574 90.2698 60.477 90.762 60.9428C91.2542 61.3999 91.9529 61.6284 92.8582 61.6284Z" fill="white"/>
<path d="M107.969 63.1313C107.257 63.1313 106.576 63.0302 105.925 62.8281C105.275 62.6259 104.765 62.3667 104.396 62.0503L105.121 60.7055C105.508 61.0131 105.965 61.2592 106.492 61.4438C107.028 61.6196 107.573 61.7075 108.127 61.7075C108.804 61.7075 109.34 61.5932 109.736 61.3647C110.14 61.1274 110.342 60.8066 110.342 60.4023C110.342 60.1738 110.258 59.9848 110.091 59.8354C109.933 59.6772 109.731 59.5497 109.485 59.4531C109.248 59.3564 108.914 59.2465 108.483 59.1235C107.885 58.9477 107.402 58.7807 107.033 58.6225C106.664 58.4555 106.347 58.2094 106.084 57.8842C105.82 57.559 105.688 57.1371 105.688 56.6186C105.688 56.0209 105.855 55.498 106.189 55.0497C106.532 54.6015 107.006 54.2543 107.613 54.0082C108.219 53.7621 108.918 53.6391 109.709 53.6391C110.307 53.6391 110.874 53.7094 111.41 53.85C111.946 53.9818 112.407 54.1708 112.794 54.4169L112.122 55.7748C111.779 55.5463 111.392 55.3705 110.962 55.2475C110.531 55.1244 110.083 55.0629 109.617 55.0629C108.931 55.0629 108.386 55.1903 107.982 55.4452C107.587 55.6913 107.389 56.0209 107.389 56.434C107.389 56.6713 107.472 56.8691 107.639 57.0273C107.806 57.1855 108.008 57.3129 108.246 57.4096C108.483 57.4975 108.83 57.6117 109.287 57.7524C109.867 57.9194 110.342 58.082 110.711 58.2402C111.08 58.3984 111.392 58.6313 111.647 58.9389C111.911 59.2465 112.043 59.6464 112.043 60.1386C112.043 60.7451 111.871 61.2724 111.528 61.7207C111.195 62.1689 110.715 62.5161 110.091 62.7622C109.476 63.0083 108.769 63.1313 107.969 63.1313Z" fill="white"/>
<path d="M117.552 55.2079L117.078 57.6073H121.547L121.27 59.018H116.788L116.287 61.5625H121.507L121.217 62.9995H114.296L116.142 53.7709H122.878L122.588 55.2079H117.552Z" fill="white"/>
<path d="M133.121 56.5527C133.121 57.4404 132.884 58.1918 132.409 58.8071C131.935 59.4135 131.271 59.8354 130.418 60.0727L132.066 62.9995H130.247L128.731 60.2968H126.437L125.91 62.9995H124.183L126.028 53.7709H129.614C130.73 53.7709 131.592 54.017 132.198 54.5092C132.814 54.9926 133.121 55.6737 133.121 56.5527ZM128.771 58.8862C129.605 58.8862 130.251 58.7016 130.709 58.3325C131.166 57.9545 131.394 57.414 131.394 56.7109C131.394 56.2187 131.223 55.8495 130.88 55.6034C130.546 55.3485 130.063 55.2211 129.43 55.2211H127.465L126.727 58.8862H128.771Z" fill="white"/>
<path d="M145.151 53.7709L139.284 62.9995H137.596L135.421 53.7709H137.188L138.836 60.8637L143.371 53.7709H145.151Z" fill="white"/>
<path d="M147.192 53.7709H148.906L147.06 62.9995H145.347L147.192 53.7709Z" fill="white"/>
<path d="M155.291 63.1313C154.369 63.1313 153.569 62.9687 152.892 62.6435C152.224 62.3095 151.71 61.8437 151.35 61.246C150.989 60.6484 150.809 59.9628 150.809 59.1894C150.809 58.1523 151.046 57.2118 151.521 56.3681C151.996 55.5243 152.664 54.8607 153.525 54.3773C154.386 53.8851 155.375 53.6391 156.491 53.6391C157.291 53.6391 157.994 53.7709 158.601 54.0346C159.216 54.2982 159.682 54.6806 159.998 55.1815L158.759 56.2231C158.24 55.5023 157.445 55.142 156.373 55.142C155.608 55.142 154.936 55.3178 154.355 55.6693C153.775 56.0209 153.327 56.4999 153.011 57.1064C152.694 57.704 152.536 58.3632 152.536 59.0839C152.536 59.8662 152.787 60.4858 153.288 60.9428C153.789 61.3999 154.5 61.6284 155.423 61.6284C156.487 61.6284 157.361 61.2724 158.047 60.5605L159.049 61.6416C158.609 62.1425 158.069 62.5161 157.427 62.7622C156.786 63.0083 156.074 63.1313 155.291 63.1313Z" fill="white"/>
<path d="M164.501 55.2079L164.027 57.6073H168.496L168.219 59.018H163.736L163.235 61.5625H168.456L168.166 62.9995H161.245L163.09 53.7709H169.827L169.537 55.2079H164.501Z" fill="white"/>
</g>
<defs>
<clipPath id="clip0_1_11">
<rect width="173" height="70" fill="white"/>
</clipPath>
</defs>
</svg>
